<?xml version="1.0" encoding="UTF-8"?>
<!DOCTYPE svg PUBLIC "-//W3C//DTD SVG 1.1//EN" "http://www.w3.org/Graphics/SVG/1.1/DTD/svg11.dtd">
<svg version="1.1" xmlns="http://www.w3.org/2000/svg" xmlns:xlink="http://www.w3.org/1999/xlink" x="0" y="0" width="1545" height="470" viewBox="0, 0, 1545, 470">
  <g id="Ebene_1">
    <path d="M276.25,463.2 L410.65,463.2 L410.65,6.8 L276.25,6.8 L276.25,177.7 L137.15,177.7 L137.15,6.8 L2.65,6.8 L2.65,463.1 L137.05,463.1 L137.05,276.4 L276.15,276.4 L276.15,463.2 z M559.85,363.8 L559.85,278.4 L767.85,278.4 L767.85,179.7 L559.85,179.7 L559.85,106.2 L776.45,106.2 L776.45,6.9 L431.45,6.9 L431.45,463.2 L766.75,463.2 L798.15,363.9 L559.85,363.9 z M1061.95,275.1 L964.55,275.1 C982.45,209.5 1000.35,144.6 1010.95,95.6 L1012.95,95.6 C1022.95,140 1040.75,203.5 1061.95,275.1 M1252.75,463.2 L1103.05,6.9 L930.15,6.9 L785.85,463.2 L915.65,463.2 L942.15,374.5 L1085.15,374.5 L1112.95,463.2 L1252.75,463.2 z M1542.35,106.2 L1542.35,6.9 L1121.85,6.9 L1154.45,106.2 L1279.45,106.2 L1279.45,463.2 L1413.25,463.2 L1413.25,106.2 L1542.35,106.2 z" fill="#62D32F"/>
  </g>
</svg>
